<svg xmlns="http://www.w3.org/2000/svg" width="26" height="26" id="heart"><g fill="#fff" transform="translate(5 -1031.362)"><circle cx="8" cy="1044.362" r="13" fill="#ef4c45"></circle><path fill="#df2209" style="line-height:normal;text-indent:0;text-align:start;text-decoration-line:none;text-decoration-style:solid;text-decoration-color:#000;text-transform:none;block-progression:tb;isolation:auto;mix-blend-mode:normal" d="M13.54 1056.109a13 13 0 0 0 .357-.16 13 13 0 0 0 1.127-.647 13 13 0 0 0 1.057-.756 13 13 0 0 0 .976-.857 13 13 0 0 0 .887-.952 13 13 0 0 0 .785-1.035 13 13 0 0 0 .68-1.107 13 13 0 0 0 .566-1.17 13 13 0 0 0 .445-1.22 13 13 0 0 0 .32-1.26 13 13 0 0 0 .079-.51l-7.031-7.032h-.002a3.53 3.53 0 0 0-2.014-.998h-.002c-.836-.12-1.719.055-2.516.477-.389.206-.762.458-1.091.787l-.163.162-.162-.162h-.002c-.2-.2-.412-.378-.636-.533h-.002a4.46 4.46 0 0 0-.7-.397h-.001a4.198 4.198 0 0 0-1.5-.369c-1.016-.053-2.035.286-2.786 1.037-1.501 1.503-1.343 4.028.262 5.635l.514.514 4.662 4.666 5.89 5.89z" color="#000" font-family="sans-serif" font-weight="400"></path><path style="line-height:normal;text-indent:0;text-align:start;text-decoration-line:none;text-decoration-style:solid;text-decoration-color:#000;text-transform:none;block-progression:tb;isolation:auto;mix-blend-mode:normal" d="M4.996 2.004C3.98 1.95 2.961 2.29 2.211 3.04.71 4.544.867 7.068 2.473 8.676l.513.513 4.662 4.666a.5.5 0 0 0 .706 0l4.66-4.666.513-.513c1.606-1.608 1.762-4.132.26-5.635-1.501-1.503-4.02-1.343-5.625.264L8 3.467l-.162-.162C7.035 2.5 6.013 2.058 4.996 2.004Zm6.049.994V3c.76-.043 1.497.21 2.037.75 1.08 1.08 1.004 2.951-.26 4.217l-.517.517L8 12.793 3.695 8.484l-.515-.517C1.916 6.7 1.84 4.83 2.92 3.75c.54-.54 1.261-.788 2.023-.748.762.04 1.554.375 2.186 1.008l.52.517a.5.5 0 0 0 .706 0l.516-.52c.632-.632 1.414-.967 2.174-1.009Z" color="#000" font-family="sans-serif" font-weight="400" overflow="visible" transform="translate(0 1036.363)"></path></g></svg>